<svg width="32" height="32" viewBox="0 0 32 32" fill="none" xmlns="http://www.w3.org/2000/svg">
<path d="M14.7688 4.1C14.8438 4.1 14.9375 4.1375 15.0188 4.25C14.6563 3.73125 15.425 3.95625 15.4688 3.4625C15.9062 3.1375 15.75 2.925 15.875 2.9125L16.0125 2.8C15.7438 2.9 15.65 2.91875 15.575 2.91875C15.5562 2.91875 15.5375 2.91875 15.5188 2.91875C15.5 2.91875 15.475 2.91875 15.45 2.91875C15.3562 2.91875 15.2 2.9375 14.8313 3.05C13.9875 3.1125 13.3812 4.025 13.0938 4.05C12.8 4.20625 12.8125 4.2375 12.8813 4.2375C12.9 4.2375 12.925 4.23125 12.95 4.23125C12.975 4.23125 12.9937 4.225 13.0125 4.225C13.0812 4.225 13.0625 4.25625 12.6625 4.44375C12.7563 4.46875 11.9625 4.81875 11.9563 5.36875C11.9313 5.58125 12.0188 5.725 12.1625 5.725C12.2875 5.725 12.4438 5.63125 12.6125 5.39375C13.175 4.74375 14.3625 4.68125 14.875 4.2875C14.5563 4.2625 14.6188 4.1 14.7688 4.1ZM11.9125 4.31875C11.8563 4.31875 11.9312 4.25 12.0125 4.18125C12.1 4.1125 12.2 4.04375 12.2 4.04375C12.2 4.04375 12.2 4.04375 12.1938 4.05C12.5313 3.91875 12.325 3.8875 12.5063 3.8C12.5 3.8 12.5 3.8 12.4937 3.8C12.4562 3.8 12.525 3.75 12.5875 3.69375C12.65 3.64375 12.7062 3.5875 12.65 3.5875C12.6187 3.5875 12.5375 3.60625 12.4 3.6625C12.4437 3.6 12.6125 3.55625 12.85 3.425C12.5063 3.5375 12.2375 3.60625 12.2063 3.60625C12.1813 3.60625 12.325 3.55625 12.7563 3.425C12.775 3.425 12.7937 3.43125 12.8062 3.43125C12.85 3.43125 12.8688 3.41875 12.8625 3.40625C12.8563 3.39375 12.8313 3.3875 12.7875 3.3875C12.1688 3.4375 11.7062 3.825 11.8438 3.875C11.925 3.85 11.9813 3.8375 12.0188 3.8375C12.1 3.8375 12.0625 3.90625 11.9 4.00625C11.975 4.18125 10.65 4.63125 10.5 4.79375C10.575 4.75 10.625 4.7375 10.65 4.7375C10.75 4.7375 10.6188 4.93125 10.4875 5.025C10.5688 5.1 10.6312 5.125 10.6812 5.125C10.8125 5.125 10.8687 4.94375 10.9812 4.8875C11.0062 4.9375 11.0312 4.9625 11.0625 4.9625C11.1688 4.9625 11.3 4.7 11.4062 4.5625C11.4375 4.59375 11.475 4.61875 11.525 4.61875C11.625 4.61875 11.775 4.5375 12.0125 4.30625C11.9625 4.3125 11.925 4.31875 11.9125 4.31875ZM10.475 5.46875C10.25 5.60625 10.1313 5.6625 10.0813 5.6625C9.9875 5.6625 10.1125 5.4875 10.225 5.30625C10.3375 5.13125 10.4375 4.95625 10.2937 4.95625C10.225 4.95625 10.1 4.99375 9.9 5.09375C9.35625 5.45625 8.4375 6.45625 8.03125 6.45625C8.01875 6.45625 8.00625 6.45625 7.99375 6.45625C8.65 5.975 8.45625 5.03125 9.375 4.7875C10.2812 4.26875 10.9 4.43125 11.7063 3.8375C11.4688 3.95625 11.1188 4.0875 11.0375 4.0875C10.9875 4.0875 11.0625 4.025 11.3875 3.86875C11.3562 3.875 11.3313 3.88125 11.3125 3.88125C11.0938 3.88125 12.75 3.2875 12.8313 3.275C12.15 3.36875 11.05 3.9375 10.9 3.9375C10.8812 3.9375 10.8813 3.93125 10.8813 3.91875C10.9063 3.9 10.9063 3.8875 10.8813 3.8875C10.8 3.8875 10.4625 4 10.1187 4.1125C9.78125 4.225 9.4375 4.34375 9.3625 4.34375C9.3375 4.34375 9.3375 4.33125 9.375 4.30625C6.425 5.98125 3.9625 8.80625 3.19375 12.1562C3.5125 12.8875 3.29375 14.2812 3.81875 14.6875C4.41875 15.1938 3.30625 16.6625 3.6 17.5688C3.9 19.2063 5.19375 20.325 5.33125 22C5.56875 23.15 6.4375 24.5563 6.8 25.2875C7.075 25.5625 7.83125 26.3563 7.9625 26.3563C8.0125 26.3563 7.98125 26.2375 7.78125 25.9188C7.65625 25.5625 6.93125 24.6313 7.28125 24.6313C7.3 24.6313 7.31875 24.6313 7.34375 24.6375C6.9125 24.2 8.3 24.3188 7.33125 23.725C7.21875 23.5875 7.19375 23.5438 7.21875 23.5438C7.25 23.5438 7.3375 23.5937 7.4375 23.6437C7.54375 23.6937 7.66875 23.7437 7.76875 23.7437C7.925 23.7437 8.03125 23.6375 7.96875 23.25C7.99375 23.2625 8.01875 23.2625 8.0375 23.2625C8.2 23.2625 8.14375 22.9437 8.15625 22.625C8.16875 22.3063 8.25 21.9875 8.6875 21.9875C8.7375 21.9875 8.79375 21.9937 8.85 22C9.8625 21.45 8.98125 19.9312 10.1438 19.375C10.1 18.1125 8.40625 18.05 7.76875 17.5375C7.6625 17.6 7.5625 17.6187 7.4625 17.6187C7.35 17.6187 7.25 17.5938 7.1625 17.5625C7.075 17.5375 6.99375 17.5063 6.9375 17.5063C6.925 17.5063 6.9125 17.5063 6.9 17.5125C7.9875 17.225 7.19375 15.7125 6.29375 15.7125C6.275 15.7125 6.25 15.7125 6.23125 15.7125C6.1625 15.0562 5.825 15.3062 5.7875 14.7625C5.73125 14.7937 5.675 14.8062 5.61875 14.8062C5.46875 14.8062 5.33125 14.7 5.2125 14.6C5.09375 14.4938 4.99375 14.3938 4.90625 14.3938C4.8375 14.3938 4.775 14.4625 4.71875 14.6625C4.78125 14.3563 4.7625 14.2563 4.7 14.2563C4.6375 14.2563 4.525 14.3625 4.4 14.4688C4.28125 14.575 4.14375 14.6812 4.0375 14.6812C4.025 14.6812 4.01875 14.6812 4.00625 14.6812C3.275 14.1625 4.0125 13.2438 3.625 12.5375C3.875 12.2688 3.975 11.8125 3.8625 11.8125C3.80625 11.8125 3.69375 11.925 3.51875 12.2312C3.26875 11.5937 3.93125 10.15 4.49375 10.0688C4.5125 10.0688 4.525 10.0625 4.54375 10.0625C4.64375 10.0625 4.74375 10.1125 4.83125 10.2188C4.88125 10.5125 4.75625 11.1313 4.80625 11.1313C4.83125 11.1313 4.88125 11.0062 5.00625 10.6812C5.16875 9.9375 6.30625 9.4 6.425 8.94375C6.43125 8.95 6.43125 8.95 6.4375 8.95C6.56875 8.95 7.4125 8.20625 7.78125 8.125C7.925 7.98125 8.025 7.93125 8.1 7.93125C8.18125 7.93125 8.225 7.99375 8.25625 8.05C8.2875 8.1125 8.3125 8.16875 8.34375 8.16875C8.36875 8.16875 8.4 8.13125 8.45625 8.025C8.2625 7.64375 8.7625 7.28125 8.625 7.28125C8.575 7.28125 8.425 7.33125 8.11875 7.45625C8.06875 7.48125 8.04375 7.4875 8.03125 7.4875C7.99375 7.4875 8.14375 7.3875 8.3625 7.2875C8.58125 7.1875 8.85625 7.0875 9.0875 7.0875C9.2 7.0875 9.3 7.1125 9.375 7.175C10.3438 6.94375 9.8125 6.625 9.8625 6.625C9.8625 6.625 9.86875 6.625 9.875 6.625C10.15 6.4625 10.0688 5.85 10.475 5.46875ZM6.14375 8.025C6.13125 8.025 6.1875 7.94375 6.375 7.7125C6.7625 7.425 7.075 7.23125 6.71875 7.04375C6.875 6.975 7.025 6.89375 7.16875 6.80625C7.1625 7.1125 6.90625 7.85625 6.76875 7.85625C6.7375 7.85625 6.70625 7.8125 6.69375 7.71875C6.775 7.575 6.78125 7.51875 6.75 7.51875C6.7 7.51875 6.55625 7.64375 6.41875 7.775C6.28125 7.89375 6.15625 8.025 6.14375 8.025ZM6.5 8.19375C6.33125 8.19375 6.3625 8.0875 6.88125 7.98125C7.10625 7.95 6.93125 7.9625 7.2 7.9C6.9375 8.1125 6.64375 8.19375 6.5 8.19375ZM16.2188 7.5625C16.2938 7.55 16.35 7.55 16.3937 7.55C16.575 7.55 16.4938 7.625 16.3875 7.7C16.2813 7.775 16.15 7.85 16.225 7.85C16.2688 7.85 16.3875 7.825 16.6313 7.75625C17.8625 7.66875 16.15 6.625 16.425 6.275L16.35 6.25C15.8438 6.89375 16.6875 6.90625 16.2188 7.5625ZM15.7063 7.5875C15.7938 7.5875 15.9062 7.4875 16.025 7.20625C16.1875 7.0125 16.1188 6.9875 15.9438 6.89375C15.4625 7.01875 15.5063 7.5875 15.7063 7.5875ZM20.0187 9.56875C20 9.56875 19.9875 9.575 19.975 9.58125C20.025 9.59375 20.075 9.60625 20.125 9.60625C20.075 9.58125 20.0437 9.56875 20.0187 9.56875ZM28.4125 11.125C28.5188 11.3563 28.575 11.45 28.5812 11.45C28.625 11.45 27.7938 9.425 27.45 9.0625C25.6563 6.1125 22.7062 3.85625 19.3438 3.0125H19.3375C19.25 3.0125 19.35 3.05625 19.4688 3.1C19.5875 3.14375 19.7313 3.1875 19.7313 3.1875C19.7313 3.1875 19.6375 3.15625 19.35 3.075C19.0313 2.98125 18.7063 2.9125 18.375 2.8875C18.3188 2.90625 19.7438 3.46875 20.7 3.7625C20.3813 3.6625 20.05 3.575 19.9688 3.575C19.9125 3.575 19.9688 3.6125 20.2 3.7125C19.9188 3.63125 19.8 3.59375 19.7875 3.59375C19.7688 3.59375 20.1625 3.725 20.5312 3.85625C20.9062 3.9875 21.2625 4.11875 21.1625 4.11875C21.1375 4.11875 21.0687 4.10625 20.9625 4.0875C21.2812 4.2625 21.3938 4.33125 21.375 4.33125C21.3438 4.33125 20.95 4.14375 20.5438 3.95625C20.1438 3.76875 19.7375 3.58125 19.6812 3.58125C19.65 3.58125 19.7313 3.64375 20.0063 3.80625C20.3813 3.96875 20.7562 4.13125 20.65 4.13125C20.6 4.13125 20.4562 4.1 20.175 4.01875C20.8 4.3375 19.7312 4.2125 20.0938 4.64375C19.8937 4.45625 19.8125 4.39375 19.7938 4.39375C19.775 4.39375 19.825 4.46875 19.875 4.54375C19.925 4.61875 19.9625 4.69375 19.9188 4.69375C19.9125 4.69375 19.9125 4.69375 19.9062 4.69375C20.3438 5.16875 19.6 4.74375 20.1313 5.16875C19.7313 4.9875 19.05 4.6875 19.3563 4.6875C19.4313 4.6875 19.575 4.70625 19.8 4.75625C19.3937 4.28125 18.2438 4.2625 18.2188 4.20625C17.9313 4.225 17.925 4.44375 17.975 4.84375C17.9688 5.475 17.35 5.4875 17.4312 5.85C17.4312 5.84375 17.4375 5.84375 17.4375 5.84375C17.45 5.84375 17.4562 5.96875 17.4937 6.1C17.5375 6.225 17.6125 6.35625 17.775 6.35625C17.8625 6.35625 17.975 6.31875 18.1125 6.225C18.3062 6.575 18.4812 6.7 18.6187 6.7C18.825 6.7 18.95 6.41875 18.9375 6.1625C18.7125 6.0375 18.4187 5 18.7437 5C18.7937 5 18.8563 5.025 18.9375 5.08125C18.4312 6.325 20.9375 5.49375 19.5187 6.0625C19.8375 6.48125 19.3187 6.4625 19.4688 6.96875C19.225 7.0375 18.9562 7.1 18.7188 7.1C18.3688 7.1 18.1 6.95 18.1313 6.425C17.6938 6.65625 18.5688 7.4375 17.7 7.4375H17.65C17.2312 8.20625 15.6625 7.94375 16.8937 8.75625C16.9625 9.1125 16.7375 9.175 16.45 9.175C16.375 9.175 16.2937 9.16875 16.2125 9.1625C16.1312 9.15625 16.05 9.15625 15.975 9.15625C15.65 9.15625 15.4187 9.2375 15.6187 9.74375C15.475 10.2687 15.8125 10.5 16.225 10.5C16.725 10.5 17.3375 10.175 17.3813 9.6375C17.65 9.23125 17.9938 9.0625 18.35 9.0625C18.9125 9.0625 19.5062 9.4875 19.8937 10.0125C19.925 10.0625 19.95 10.0813 19.9625 10.0813C19.9937 10.0813 19.9625 9.95625 19.95 9.83125C19.9375 9.73125 19.9375 9.63125 19.975 9.6C19.4188 9.44375 18.9937 8.76875 19.1812 8.76875C19.2437 8.76875 19.375 8.84375 19.5875 9.04375C19.6 9.04375 19.6125 9.04375 19.6187 9.04375C19.9687 9.04375 20.2437 9.31875 20.4562 9.59375C20.675 9.86875 20.8375 10.1438 20.9813 10.1438C21.0375 10.1438 21.0937 10.0937 21.1437 9.98125C21.1187 9.94375 21.0562 9.8375 21.025 9.73125C20.9875 9.6 20.9875 9.46875 21.1562 9.46875C21.225 9.46875 21.3188 9.49375 21.45 9.54375C21.875 9.43125 21.1812 8.325 21.7437 8.325C21.8 8.325 21.8687 8.3375 21.9562 8.3625C21.95 8.55625 22.0375 8.625 22.1187 8.625C22.2812 8.625 22.4437 8.39375 22.05 8.325C22.2 8.18125 22.2875 8.125 22.35 8.125C22.5688 8.125 22.3937 8.85 23.15 8.85C23.4062 9.45625 20.925 8.89375 21.7188 10.0562C21.9 10.1875 22.125 10.2125 22.3438 10.2125C22.4125 10.2125 22.475 10.2125 22.5375 10.2063C22.6 10.2063 22.6625 10.2 22.7188 10.2C23.1062 10.2 23.3812 10.2937 23.2125 11.0938C23.0062 11.2438 22.775 11.2937 22.5375 11.2937C22.325 11.2937 22.1125 11.2563 21.9062 11.2188C21.7 11.1812 21.5 11.1438 21.3188 11.1438C21.0375 11.1438 20.8125 11.2375 20.675 11.5625C19.9437 11.2625 18.9813 11.25 19.075 10.3438C17.8 10.525 16.4688 10.4312 15.5312 11.2125C15.475 12.3562 13.5125 12.725 13.9875 14.025C13.4188 15.225 14.675 16.9062 15.9563 16.9062C16 16.9062 16.05 16.9062 16.0938 16.9C16.7937 16.8937 17.5 16.5812 18.1187 16.5812C18.4375 16.5812 18.725 16.6625 18.975 16.9125C19.0313 16.9063 19.0813 16.9 19.125 16.9C20.0813 16.9 18.8187 18.4187 19.9625 18.675C21 19.75 19.325 20.8563 20.1437 21.8875C20.2312 22.6938 20.6313 23.3687 20.6313 24.1562C20.7375 24.1688 20.8375 24.175 20.9438 24.175C22.2625 24.175 23.0875 23.025 23.8625 22.1562C23.625 20.8563 25.7062 20.6 24.9937 19.1437C24.6625 17.55 26.5625 16.6062 26.4562 15.0125C26.475 14.7875 26.4125 14.7188 26.3188 14.7188C26.225 14.7188 26.0875 14.7875 25.9562 14.85C25.8187 14.9188 25.6687 14.9812 25.55 14.9812C25.3937 14.9812 25.275 14.875 25.2625 14.525C24.3438 13.6687 23.925 12.5063 23.0688 11.5625C24.1813 12.1 24.8125 13.3125 25.325 14.4125C25.3688 14.425 25.4125 14.4312 25.4625 14.4312C26.3687 14.4312 27.6313 12.2625 26.2563 11.7375C26.1813 11.9438 26.0812 12.0188 25.9625 12.0188C25.7562 12.0188 25.5188 11.7687 25.35 11.525C25.1813 11.275 25.0938 11.025 25.1875 11.025C25.25 11.025 25.3875 11.125 25.625 11.3875C25.8938 11.5562 26.1562 11.6 26.4312 11.6C26.7 11.6 26.975 11.5563 27.2625 11.5312C27.625 11.675 27.7812 12.1375 27.8937 12.1375C27.9125 12.1375 27.9375 12.1187 27.9562 12.075C28.2437 12.7625 28.575 13.9875 28.875 14.3188C28.7188 13.2688 28.6813 12.1562 28.4125 11.125ZM24.925 9.68125C24.2187 9.5 23.9875 8.625 23.4312 8.11875C23.425 7.98125 23.6312 8.00625 23.5812 7.775C24.3312 8.00625 24.0875 8.2375 24.0187 8.28125C24.2937 8.7375 25.0625 9.05 24.925 9.68125ZM15.2188 4.925C14.5375 5.125 14.4438 4.90625 14.5625 5.325C14.6125 5.3625 14.7063 5.375 14.8 5.375C15.1313 5.38125 15.5813 5.1875 15.2188 4.925ZM25.225 22.1437C26.1188 21.3875 26.2312 20.4875 26.275 19.575C25.875 20.3563 24.6875 21.2187 25.225 22.1437ZM21.1562 9.95625C21.15 9.9625 21.15 9.9625 21.15 9.96875C21.1562 9.98125 21.1625 9.98125 21.1625 9.98125C21.1625 9.98125 21.1625 9.975 21.1562 9.95625ZM16 0C7.1625 0 0 7.1625 0 16C0 24.8375 7.1625 32 16 32C24.8375 32 32 24.8375 32 16C32 7.1625 24.8375 0 16 0ZM16 30.7687C7.84375 30.7687 1.23125 24.1562 1.23125 16C1.23125 7.84375 7.84375 1.23125 16 1.23125C24.1562 1.23125 30.7687 7.84375 30.7687 16C30.7687 24.1562 24.1562 30.7687 16 30.7687Z" fill="#4DA1A1"/>
</svg>
