<svg width="2400" height="2400" viewBox="0 0 2400 2400" fill="none" xmlns="http://www.w3.org/2000/svg">
<rect x="0.5" y="0.5" width="199" height="299" stroke="#479494" stroke-opacity="0.2"/>
<rect x="200.5" y="0.5" width="199" height="299" stroke="#479494" stroke-opacity="0.2"/>
<rect x="400.5" y="0.5" width="199" height="299" stroke="#479494" stroke-opacity="0.2"/>
<rect x="600.5" y="0.5" width="199" height="299" stroke="#479494" stroke-opacity="0.2"/>
<rect x="800.5" y="0.5" width="199" height="299" stroke="#479494" stroke-opacity="0.2"/>
<rect x="1000.5" y="0.5" width="199" height="299" stroke="#479494" stroke-opacity="0.2"/>
<rect x="1200.5" y="0.5" width="199" height="299" stroke="#479494" stroke-opacity="0.2"/>
<rect x="1400.5" y="0.5" width="199" height="299" stroke="#479494" stroke-opacity="0.2"/>
<rect x="0.5" y="300.5" width="199" height="299" stroke="#479494" stroke-opacity="0.2"/>
<rect x="200.5" y="300.5" width="199" height="299" stroke="#479494" stroke-opacity="0.2"/>
<rect x="400.5" y="300.5" width="199" height="299" stroke="#479494" stroke-opacity="0.2"/>
<rect x="600.5" y="300.5" width="199" height="299" stroke="#479494" stroke-opacity="0.2"/>
<rect x="800.5" y="300.5" width="199" height="299" stroke="#479494" stroke-opacity="0.2"/>
<rect x="1000.5" y="300.5" width="199" height="299" stroke="#479494" stroke-opacity="0.2"/>
<rect x="1200.5" y="300.5" width="199" height="299" stroke="#479494" stroke-opacity="0.2"/>
<rect x="1400.5" y="300.5" width="199" height="299" stroke="#479494" stroke-opacity="0.2"/>
<rect x="0.5" y="600.5" width="199" height="299" stroke="#479494" stroke-opacity="0.2"/>
<rect x="200.5" y="600.5" width="199" height="299" stroke="#479494" stroke-opacity="0.2"/>
<rect x="400.5" y="600.5" width="199" height="299" stroke="#479494" stroke-opacity="0.2"/>
<rect x="600.5" y="600.5" width="199" height="299" stroke="#479494" stroke-opacity="0.2"/>
<rect x="800.5" y="600.5" width="199" height="299" stroke="#479494" stroke-opacity="0.2"/>
<rect x="1000.5" y="600.5" width="199" height="299" stroke="#479494" stroke-opacity="0.2"/>
<rect x="1200.5" y="600.5" width="199" height="299" stroke="#479494" stroke-opacity="0.2"/>
<rect x="1400.5" y="600.5" width="199" height="299" stroke="#479494" stroke-opacity="0.2"/>
<rect x="0.5" y="900.5" width="199" height="299" stroke="#479494" stroke-opacity="0.2"/>
<rect x="200.5" y="900.5" width="199" height="299" stroke="#479494" stroke-opacity="0.2"/>
<rect x="400.5" y="900.5" width="199" height="299" stroke="#479494" stroke-opacity="0.2"/>
<rect x="600.5" y="900.5" width="199" height="299" stroke="#479494" stroke-opacity="0.2"/>
<rect x="800.5" y="900.5" width="199" height="299" stroke="#479494" stroke-opacity="0.2"/>
<rect x="1000.5" y="900.5" width="199" height="299" stroke="#479494" stroke-opacity="0.2"/>
<rect x="1200.5" y="900.5" width="199" height="299" stroke="#479494" stroke-opacity="0.2"/>
<rect x="1400.5" y="900.5" width="199" height="299" stroke="#479494" stroke-opacity="0.2"/>
<rect x="0.5" y="1200.5" width="199" height="299" stroke="#479494" stroke-opacity="0.2"/>
<rect x="200.5" y="1200.5" width="199" height="299" stroke="#479494" stroke-opacity="0.2"/>
<rect x="400.5" y="1200.5" width="199" height="299" stroke="#479494" stroke-opacity="0.2"/>
<rect x="600.5" y="1200.5" width="199" height="299" stroke="#479494" stroke-opacity="0.2"/>
<rect x="800.5" y="1200.5" width="199" height="299" stroke="#479494" stroke-opacity="0.2"/>
<rect x="1000.5" y="1200.5" width="199" height="299" stroke="#479494" stroke-opacity="0.2"/>
<rect x="1200.5" y="1200.5" width="199" height="299" stroke="#479494" stroke-opacity="0.2"/>
<rect x="1400.5" y="1200.5" width="199" height="299" stroke="#479494" stroke-opacity="0.2"/>
<rect x="0.5" y="1500.5" width="199" height="299" stroke="#479494" stroke-opacity="0.2"/>
<rect x="200.5" y="1500.5" width="199" height="299" stroke="#479494" stroke-opacity="0.2"/>
<rect x="400.5" y="1500.5" width="199" height="299" stroke="#479494" stroke-opacity="0.2"/>
<rect x="600.5" y="1500.5" width="199" height="299" stroke="#479494" stroke-opacity="0.2"/>
<rect x="800.5" y="1500.5" width="199" height="299" stroke="#479494" stroke-opacity="0.2"/>
<rect x="1000.5" y="1500.5" width="199" height="299" stroke="#479494" stroke-opacity="0.2"/>
<rect x="1200.5" y="1500.5" width="199" height="299" stroke="#479494" stroke-opacity="0.2"/>
<rect x="1400.5" y="1500.5" width="199" height="299" stroke="#479494" stroke-opacity="0.2"/>
<rect x="0.5" y="1800.5" width="199" height="299" stroke="#479494" stroke-opacity="0.2"/>
<rect x="200.5" y="1800.5" width="199" height="299" stroke="#479494" stroke-opacity="0.2"/>
<rect x="400.5" y="1800.5" width="199" height="299" stroke="#479494" stroke-opacity="0.2"/>
<rect x="600.5" y="1800.5" width="199" height="299" stroke="#479494" stroke-opacity="0.2"/>
<rect x="800.5" y="1800.5" width="199" height="299" stroke="#479494" stroke-opacity="0.2"/>
<rect x="1000.5" y="1800.5" width="199" height="299" stroke="#479494" stroke-opacity="0.2"/>
<rect x="1200.5" y="1800.5" width="199" height="299" stroke="#479494" stroke-opacity="0.2"/>
<rect x="1400.5" y="1800.5" width="199" height="299" stroke="#479494" stroke-opacity="0.2"/>
<rect x="0.5" y="2100.5" width="199" height="299" stroke="#479494" stroke-opacity="0.2"/>
<rect x="200.5" y="2100.5" width="199" height="299" stroke="#479494" stroke-opacity="0.2"/>
<rect x="400.5" y="2100.5" width="199" height="299" stroke="#479494" stroke-opacity="0.2"/>
<rect x="600.5" y="2100.5" width="199" height="299" stroke="#479494" stroke-opacity="0.2"/>
<rect x="800.5" y="2100.5" width="199" height="299" stroke="#479494" stroke-opacity="0.2"/>
<rect x="1000.5" y="2100.5" width="199" height="299" stroke="#479494" stroke-opacity="0.2"/>
<rect x="1200.5" y="2100.5" width="199" height="299" stroke="#479494" stroke-opacity="0.2"/>
<rect x="1400.5" y="2100.5" width="199" height="299" stroke="#479494" stroke-opacity="0.2"/>
<rect x="1600.5" y="0.5" width="199" height="299" stroke="#479494" stroke-opacity="0.2"/>
<rect x="1800.5" y="0.5" width="199" height="299" stroke="#479494" stroke-opacity="0.2"/>
<rect x="2000.5" y="0.5" width="199" height="299" stroke="#479494" stroke-opacity="0.2"/>
<rect x="2200.5" y="0.5" width="199" height="299" stroke="#479494" stroke-opacity="0.2"/>
<rect x="1600.5" y="300.5" width="199" height="299" stroke="#479494" stroke-opacity="0.2"/>
<rect x="1800.5" y="300.5" width="199" height="299" stroke="#479494" stroke-opacity="0.2"/>
<rect x="2000.5" y="300.5" width="199" height="299" stroke="#479494" stroke-opacity="0.2"/>
<rect x="2200.5" y="300.5" width="199" height="299" stroke="#479494" stroke-opacity="0.2"/>
<rect x="1600.5" y="600.5" width="199" height="299" stroke="#479494" stroke-opacity="0.2"/>
<rect x="1800.5" y="600.5" width="199" height="299" stroke="#479494" stroke-opacity="0.2"/>
<rect x="2000.5" y="600.5" width="199" height="299" stroke="#479494" stroke-opacity="0.2"/>
<rect x="2200.5" y="600.5" width="199" height="299" stroke="#479494" stroke-opacity="0.2"/>
<rect x="1600.5" y="900.5" width="199" height="299" stroke="#479494" stroke-opacity="0.2"/>
<rect x="1800.5" y="900.5" width="199" height="299" stroke="#479494" stroke-opacity="0.2"/>
<rect x="2000.5" y="900.5" width="199" height="299" stroke="#479494" stroke-opacity="0.2"/>
<rect x="2200.5" y="900.5" width="199" height="299" stroke="#479494" stroke-opacity="0.2"/>
<rect x="1600.5" y="1200.5" width="199" height="299" stroke="#479494" stroke-opacity="0.2"/>
<rect x="1800.5" y="1200.5" width="199" height="299" stroke="#479494" stroke-opacity="0.2"/>
<rect x="2000.5" y="1200.5" width="199" height="299" stroke="#479494" stroke-opacity="0.2"/>
<rect x="2200.5" y="1200.5" width="199" height="299" stroke="#479494" stroke-opacity="0.2"/>
<rect x="1600.5" y="1500.5" width="199" height="299" stroke="#479494" stroke-opacity="0.2"/>
<rect x="1800.5" y="1500.5" width="199" height="299" stroke="#479494" stroke-opacity="0.2"/>
<rect x="2000.5" y="1500.5" width="199" height="299" stroke="#479494" stroke-opacity="0.2"/>
<rect x="2200.5" y="1500.5" width="199" height="299" stroke="#479494" stroke-opacity="0.2"/>
<rect x="1600.5" y="1800.5" width="199" height="299" stroke="#479494" stroke-opacity="0.2"/>
<rect x="1800.5" y="1800.5" width="199" height="299" stroke="#479494" stroke-opacity="0.2"/>
<rect x="2000.5" y="1800.5" width="199" height="299" stroke="#479494" stroke-opacity="0.2"/>
<rect x="2200.5" y="1800.5" width="199" height="299" stroke="#479494" stroke-opacity="0.2"/>
<rect x="1600.5" y="2100.5" width="199" height="299" stroke="#479494" stroke-opacity="0.2"/>
<rect x="1800.5" y="2100.5" width="199" height="299" stroke="#479494" stroke-opacity="0.2"/>
<rect x="2000.5" y="2100.5" width="199" height="299" stroke="#479494" stroke-opacity="0.2"/>
<rect x="2200.5" y="2100.5" width="199" height="299" stroke="#479494" stroke-opacity="0.2"/>
</svg>
