<svg width="1037" height="90" viewBox="0 0 1037 90" fill="none" xmlns="http://www.w3.org/2000/svg">
<path d="M25.7387 88.4659L4.44502e-05 1.19321H26.4205L38.3523 54.8864H39.0341L53.1819 1.19321H73.9773L88.125 55.0569H88.8069L100.739 1.19321H127.159L101.421 88.4659H78.75L63.9205 39.7159H63.2387L48.4091 88.4659H25.7387ZM213.867 44.8296C213.867 54.5455 211.978 62.7415 208.2 69.4176C204.421 76.0654 199.322 81.108 192.901 84.5455C186.481 87.9546 179.322 89.6591 171.424 89.6591C163.47 89.6591 156.282 87.9404 149.862 84.5029C143.47 81.037 138.384 75.9801 134.606 69.3324C130.856 62.6563 128.981 54.4887 128.981 44.8296C128.981 35.1137 130.856 26.9318 134.606 20.2841C138.384 13.608 143.47 8.56537 149.862 5.15628C156.282 1.71878 163.47 3.00407e-05 171.424 3.00407e-05C179.322 3.00407e-05 186.481 1.71878 192.901 5.15628C199.322 8.56537 204.421 13.608 208.2 20.2841C211.978 26.9318 213.867 35.1137 213.867 44.8296ZM189.492 44.8296C189.492 39.6023 188.796 35.1989 187.404 31.6194C186.041 28.0114 184.009 25.2841 181.31 23.4375C178.64 21.5625 175.345 20.625 171.424 20.625C167.504 20.625 164.194 21.5625 161.495 23.4375C158.825 25.2841 156.793 28.0114 155.401 31.6194C154.038 35.1989 153.356 39.6023 153.356 44.8296C153.356 50.0568 154.038 54.4745 155.401 58.0824C156.793 61.662 158.825 64.3892 161.495 66.2642C164.194 68.1108 167.504 69.0341 171.424 69.0341C175.345 69.0341 178.64 68.1108 181.31 66.2642C184.009 64.3892 186.041 61.662 187.404 58.0824C188.796 54.4745 189.492 50.0568 189.492 44.8296ZM224.83 88.4659V1.19321H262.5C268.977 1.19321 274.645 2.37219 279.503 4.73014C284.361 7.0881 288.139 10.483 290.838 14.9148C293.537 19.3466 294.886 24.6591 294.886 30.8523C294.886 37.1023 293.494 42.3722 290.71 46.662C287.955 50.9517 284.077 54.1904 279.077 56.3779C274.105 58.5654 268.295 59.6591 261.648 59.6591H239.148V41.25H256.875C259.659 41.25 262.031 40.9091 263.992 40.2273C265.98 39.5171 267.5 38.3949 268.551 36.8608C269.631 35.3267 270.171 33.3239 270.171 30.8523C270.171 28.3523 269.631 26.3211 268.551 24.7586C267.5 23.1676 265.98 22.0029 263.992 21.2642C262.031 20.4972 259.659 20.1137 256.875 20.1137H248.523V88.4659H224.83ZM275.966 48.4091L297.784 88.4659H272.046L250.739 48.4091H275.966ZM304.986 88.4659V1.19321H328.679V69.375H363.963V88.4659H304.986ZM407.12 88.4659H373.541V1.19321H406.779C415.756 1.19321 423.512 2.94037 430.046 6.43469C436.609 9.9006 441.666 14.9006 445.217 21.4347C448.796 27.9404 450.586 35.7387 450.586 44.8296C450.586 53.9205 448.81 61.733 445.259 68.2671C441.708 74.7728 436.68 79.7728 430.174 83.2671C423.668 86.733 415.984 88.4659 407.12 88.4659ZM397.234 68.3523H406.268C410.586 68.3523 414.265 67.6563 417.305 66.2642C420.373 64.8722 422.702 62.4716 424.293 59.0625C425.913 55.6534 426.722 50.9091 426.722 44.8296C426.722 38.75 425.898 34.0057 424.251 30.5966C422.631 27.1875 420.245 24.787 417.092 23.3949C413.967 22.0029 410.131 21.3068 405.586 21.3068H397.234V68.3523ZM455.06 20.2841V1.19321H530.913V20.2841H504.663V88.4659H481.31V20.2841H455.06ZM539.83 88.4659V1.19321H577.5C583.977 1.19321 589.645 2.37219 594.503 4.73014C599.361 7.0881 603.139 10.483 605.838 14.9148C608.537 19.3466 609.886 24.6591 609.886 30.8523C609.886 37.1023 608.494 42.3722 605.71 46.662C602.955 50.9517 599.077 54.1904 594.077 56.3779C589.105 58.5654 583.295 59.6591 576.648 59.6591H554.148V41.25H571.875C574.659 41.25 577.031 40.9091 578.992 40.2273C580.98 39.5171 582.5 38.3949 583.551 36.8608C584.631 35.3267 585.171 33.3239 585.171 30.8523C585.171 28.3523 584.631 26.3211 583.551 24.7586C582.5 23.1676 580.98 22.0029 578.992 21.2642C577.031 20.4972 574.659 20.1137 571.875 20.1137H563.523V88.4659H539.83ZM590.966 48.4091L612.784 88.4659H587.046L565.739 48.4091H590.966ZM642.656 88.4659H617.088L645.895 1.19321H678.281L707.088 88.4659H681.52L662.429 25.2273H661.747L642.656 88.4659ZM637.884 54.0341H685.952V71.7614H637.884V54.0341ZM792.869 33.9205H768.835C768.665 31.9318 768.21 30.1279 767.472 28.5086C766.761 26.8892 765.767 25.4972 764.489 24.3324C763.239 23.1392 761.719 22.2301 759.929 21.6051C758.139 20.9517 756.108 20.625 753.835 20.625C749.858 20.625 746.492 21.5909 743.736 23.5228C741.009 25.4546 738.935 28.2245 737.514 31.8324C736.122 35.4404 735.426 39.7728 735.426 44.8296C735.426 50.1705 736.136 54.6449 737.557 58.2529C739.006 61.8324 741.094 64.5313 743.821 66.3495C746.548 68.1392 749.83 69.0341 753.665 69.0341C755.852 69.0341 757.813 68.7642 759.546 68.2245C761.278 67.6563 762.784 66.8466 764.063 65.7955C765.341 64.7444 766.378 63.4801 767.173 62.0029C767.997 60.4972 768.551 58.8069 768.835 56.9319L792.869 57.1023C792.585 60.7955 791.548 64.5597 789.759 68.3949C787.969 72.2017 785.426 75.7245 782.131 78.9631C778.864 82.1733 774.815 84.7586 769.986 86.7188C765.156 88.679 759.545 89.6591 753.153 89.6591C745.142 89.6591 737.955 87.9404 731.591 84.5029C725.256 81.0654 720.242 76.0086 716.548 69.3324C712.884 62.6563 711.051 54.4887 711.051 44.8296C711.051 35.1137 712.926 26.9318 716.676 20.2841C720.426 13.608 725.483 8.56537 731.847 5.15628C738.21 1.71878 745.313 3.00407e-05 753.153 3.00407e-05C758.665 3.00407e-05 763.736 0.75287 768.367 2.25855C772.997 3.76424 777.06 5.96594 780.554 8.86367C784.048 11.733 786.861 15.2699 788.992 19.4745C791.122 23.679 792.415 28.4943 792.869 33.9205ZM803.619 88.4659V1.19321H827.312V36.4773H828.505L854.755 1.19321H882.369L852.88 40.0569L883.05 88.4659H854.755L835.153 55.7387L827.312 65.9659V88.4659H803.619ZM889.4 88.4659V1.19321H952.298V20.2841H913.093V35.2841H949.059V54.375H913.093V69.375H952.127V88.4659H889.4ZM964.048 88.4659V1.19321H1001.72C1008.2 1.19321 1013.86 2.37219 1018.72 4.73014C1023.58 7.0881 1027.36 10.483 1030.06 14.9148C1032.76 19.3466 1034.11 24.6591 1034.11 30.8523C1034.11 37.1023 1032.71 42.3722 1029.93 46.662C1027.17 50.9517 1023.3 54.1904 1018.3 56.3779C1013.32 58.5654 1007.51 59.6591 1000.87 59.6591H978.367V41.25H996.094C998.878 41.25 1001.25 40.9091 1003.21 40.2273C1005.2 39.5171 1006.72 38.3949 1007.77 36.8608C1008.85 35.3267 1009.39 33.3239 1009.39 30.8523C1009.39 28.3523 1008.85 26.3211 1007.77 24.7586C1006.72 23.1676 1005.2 22.0029 1003.21 21.2642C1001.25 20.4972 998.878 20.1137 996.094 20.1137H987.742V88.4659H964.048ZM1015.18 48.4091L1037 88.4659H1011.26L989.957 48.4091H1015.18Z" fill="black"/>
</svg>
